<svg id="visual" viewBox="0 0 900 600" width="900" height="600" xmlns="http://www.w3.org/2000/svg" xmlns:xlink="http://www.w3.org/1999/xlink" version="1.1"><rect x="0" y="0" width="900" height="600" fill="#140021"></rect><path d="M0 270L129 270L129 273L257 273L257 250L386 250L386 330L514 330L514 290L643 290L643 370L771 370L771 268L900 268L900 295L900 601L900 601L771 601L771 601L643 601L643 601L514 601L514 601L386 601L386 601L257 601L257 601L129 601L129 601L0 601Z" fill="#9900ff"></path><path d="M0 434L129 434L129 373L257 373L257 460L386 460L386 437L514 437L514 419L643 419L643 418L771 418L771 431L900 431L900 358L900 601L900 601L771 601L771 601L643 601L643 601L514 601L514 601L386 601L386 601L257 601L257 601L129 601L129 601L0 601Z" fill="#7700c6"></path><path d="M0 525L129 525L129 450L257 450L257 465L386 465L386 487L514 487L514 531L643 531L643 532L771 532L771 497L900 497L900 448L900 601L900 601L771 601L771 601L643 601L643 601L514 601L514 601L386 601L386 601L257 601L257 601L129 601L129 601L0 601Z" fill="#560090"></path></svg>